<?xml version="1.0" encoding="UTF-8" standalone="no"?>
<!DOCTYPE svg PUBLIC "-//W3C//DTD SVG 1.1//EN"
 "http://www.w3.org/Graphics/SVG/1.1/DTD/svg11.dtd">
<!-- Generated by graphviz version 14.1.1 (20251213.1925)
 -->
<!-- Title: InheritanceTree Pages: 1 -->
<svg width="556pt" height="1725pt"
 viewBox="0.00 0.00 556.00 1725.00" xmlns="http://www.w3.org/2000/svg" xmlns:xlink="http://www.w3.org/1999/xlink">
<g id="graph0" class="graph" transform="scale(1 1) rotate(0) translate(4 1720.5)">
<title>InheritanceTree</title>
<polygon fill="white" stroke="none" points="-4,4 -4,-1720.5 552,-1720.5 552,4 -4,4"/>
<text xml:space="preserve" text-anchor="middle" x="274" y="-7.2" font-family="Times New Roman,serif" font-size="14.00">simple_eiffel_parser &#45; Inheritance Hierarchy</text>
<!-- DBC_ANALYZER -->
<g id="node1" class="node">
<title>DBC_ANALYZER</title>
<path fill="none" stroke="black" d="M153.62,-60.5C153.62,-60.5 55.12,-60.5 55.12,-60.5 49.12,-60.5 43.12,-54.5 43.12,-48.5 43.12,-48.5 43.12,-36.5 43.12,-36.5 43.12,-30.5 49.12,-24.5 55.12,-24.5 55.12,-24.5 153.62,-24.5 153.62,-24.5 159.62,-24.5 165.62,-30.5 165.62,-36.5 165.62,-36.5 165.62,-48.5 165.62,-48.5 165.62,-54.5 159.62,-60.5 153.62,-60.5"/>
<text xml:space="preserve" text-anchor="middle" x="104.38" y="-37.45" font-family="Times New Roman,serif" font-size="14.00">DBC_ANALYZER</text>
</g>
<!-- DBC_CLASS_METRICS -->
<g id="node2" class="node">
<title>DBC_CLASS_METRICS</title>
<path fill="none" stroke="black" d="M171.62,-132.5C171.62,-132.5 37.12,-132.5 37.12,-132.5 31.12,-132.5 25.12,-126.5 25.12,-120.5 25.12,-120.5 25.12,-108.5 25.12,-108.5 25.12,-102.5 31.12,-96.5 37.12,-96.5 37.12,-96.5 171.62,-96.5 171.62,-96.5 177.62,-96.5 183.62,-102.5 183.62,-108.5 183.62,-108.5 183.62,-120.5 183.62,-120.5 183.62,-126.5 177.62,-132.5 171.62,-132.5"/>
<text xml:space="preserve" text-anchor="middle" x="104.38" y="-109.45" font-family="Times New Roman,serif" font-size="14.00">DBC_CLASS_METRICS</text>
</g>
<!-- DBC_FEATURE_METRICS -->
<g id="node3" class="node">
<title>DBC_FEATURE_METRICS</title>
<path fill="none" stroke="black" d="M180.25,-204.5C180.25,-204.5 28.5,-204.5 28.5,-204.5 22.5,-204.5 16.5,-198.5 16.5,-192.5 16.5,-192.5 16.5,-180.5 16.5,-180.5 16.5,-174.5 22.5,-168.5 28.5,-168.5 28.5,-168.5 180.25,-168.5 180.25,-168.5 186.25,-168.5 192.25,-174.5 192.25,-180.5 192.25,-180.5 192.25,-192.5 192.25,-192.5 192.25,-198.5 186.25,-204.5 180.25,-204.5"/>
<text xml:space="preserve" text-anchor="middle" x="104.38" y="-181.45" font-family="Times New Roman,serif" font-size="14.00">DBC_FEATURE_METRICS</text>
</g>
<!-- DBC_LIBRARY_METRICS -->
<g id="node4" class="node">
<title>DBC_LIBRARY_METRICS</title>
<path fill="none" stroke="black" d="M179.88,-276.5C179.88,-276.5 28.88,-276.5 28.88,-276.5 22.88,-276.5 16.88,-270.5 16.88,-264.5 16.88,-264.5 16.88,-252.5 16.88,-252.5 16.88,-246.5 22.88,-240.5 28.88,-240.5 28.88,-240.5 179.88,-240.5 179.88,-240.5 185.88,-240.5 191.88,-246.5 191.88,-252.5 191.88,-252.5 191.88,-264.5 191.88,-264.5 191.88,-270.5 185.88,-276.5 179.88,-276.5"/>
<text xml:space="preserve" text-anchor="middle" x="104.38" y="-253.45" font-family="Times New Roman,serif" font-size="14.00">DBC_LIBRARY_METRICS</text>
</g>
<!-- EIFFEL_ARGUMENT_NODE -->
<g id="node5" class="node">
<title>EIFFEL_ARGUMENT_NODE</title>
<path fill="none" stroke="black" d="M186.62,-348.5C186.62,-348.5 22.12,-348.5 22.12,-348.5 16.12,-348.5 10.12,-342.5 10.12,-336.5 10.12,-336.5 10.12,-324.5 10.12,-324.5 10.12,-318.5 16.12,-312.5 22.12,-312.5 22.12,-312.5 186.62,-312.5 186.62,-312.5 192.62,-312.5 198.62,-318.5 198.62,-324.5 198.62,-324.5 198.62,-336.5 198.62,-336.5 198.62,-342.5 192.62,-348.5 186.62,-348.5"/>
<text xml:space="preserve" text-anchor="middle" x="104.38" y="-325.45" font-family="Times New Roman,serif" font-size="14.00">EIFFEL_ARGUMENT_NODE</text>
</g>
<!-- EIFFEL_AST -->
<g id="node6" class="node">
<title>EIFFEL_AST</title>
<path fill="none" stroke="black" d="M138.62,-420.5C138.62,-420.5 70.12,-420.5 70.12,-420.5 64.12,-420.5 58.12,-414.5 58.12,-408.5 58.12,-408.5 58.12,-396.5 58.12,-396.5 58.12,-390.5 64.12,-384.5 70.12,-384.5 70.12,-384.5 138.62,-384.5 138.62,-384.5 144.62,-384.5 150.62,-390.5 150.62,-396.5 150.62,-396.5 150.62,-408.5 150.62,-408.5 150.62,-414.5 144.62,-420.5 138.62,-420.5"/>
<text xml:space="preserve" text-anchor="middle" x="104.38" y="-397.45" font-family="Times New Roman,serif" font-size="14.00">EIFFEL_AST</text>
</g>
<!-- EIFFEL_CLASS_NODE -->
<g id="node7" class="node">
<title>EIFFEL_CLASS_NODE</title>
<path fill="none" stroke="black" d="M169,-492.5C169,-492.5 39.75,-492.5 39.75,-492.5 33.75,-492.5 27.75,-486.5 27.75,-480.5 27.75,-480.5 27.75,-468.5 27.75,-468.5 27.75,-462.5 33.75,-456.5 39.75,-456.5 39.75,-456.5 169,-456.5 169,-456.5 175,-456.5 181,-462.5 181,-468.5 181,-468.5 181,-480.5 181,-480.5 181,-486.5 175,-492.5 169,-492.5"/>
<text xml:space="preserve" text-anchor="middle" x="104.38" y="-469.45" font-family="Times New Roman,serif" font-size="14.00">EIFFEL_CLASS_NODE</text>
</g>
<!-- EIFFEL_FEATURE_NODE -->
<g id="node8" class="node">
<title>EIFFEL_FEATURE_NODE</title>
<path fill="none" stroke="black" d="M177.62,-564.5C177.62,-564.5 31.12,-564.5 31.12,-564.5 25.12,-564.5 19.12,-558.5 19.12,-552.5 19.12,-552.5 19.12,-540.5 19.12,-540.5 19.12,-534.5 25.12,-528.5 31.12,-528.5 31.12,-528.5 177.62,-528.5 177.62,-528.5 183.62,-528.5 189.62,-534.5 189.62,-540.5 189.62,-540.5 189.62,-552.5 189.62,-552.5 189.62,-558.5 183.62,-564.5 177.62,-564.5"/>
<text xml:space="preserve" text-anchor="middle" x="104.38" y="-541.45" font-family="Times New Roman,serif" font-size="14.00">EIFFEL_FEATURE_NODE</text>
</g>
<!-- EIFFEL_LEXER -->
<g id="node9" class="node">
<title>EIFFEL_LEXER</title>
<path fill="none" stroke="black" d="M147.62,-636.5C147.62,-636.5 61.12,-636.5 61.12,-636.5 55.12,-636.5 49.12,-630.5 49.12,-624.5 49.12,-624.5 49.12,-612.5 49.12,-612.5 49.12,-606.5 55.12,-600.5 61.12,-600.5 61.12,-600.5 147.62,-600.5 147.62,-600.5 153.62,-600.5 159.62,-606.5 159.62,-612.5 159.62,-612.5 159.62,-624.5 159.62,-624.5 159.62,-630.5 153.62,-636.5 147.62,-636.5"/>
<text xml:space="preserve" text-anchor="middle" x="104.38" y="-613.45" font-family="Times New Roman,serif" font-size="14.00">EIFFEL_LEXER</text>
</g>
<!-- EIFFEL_LOCAL_NODE -->
<g id="node10" class="node">
<title>EIFFEL_LOCAL_NODE</title>
<path fill="none" stroke="black" d="M170.5,-708.5C170.5,-708.5 38.25,-708.5 38.25,-708.5 32.25,-708.5 26.25,-702.5 26.25,-696.5 26.25,-696.5 26.25,-684.5 26.25,-684.5 26.25,-678.5 32.25,-672.5 38.25,-672.5 38.25,-672.5 170.5,-672.5 170.5,-672.5 176.5,-672.5 182.5,-678.5 182.5,-684.5 182.5,-684.5 182.5,-696.5 182.5,-696.5 182.5,-702.5 176.5,-708.5 170.5,-708.5"/>
<text xml:space="preserve" text-anchor="middle" x="104.38" y="-685.45" font-family="Times New Roman,serif" font-size="14.00">EIFFEL_LOCAL_NODE</text>
</g>
<!-- EIFFEL_PARENT_NODE -->
<g id="node11" class="node">
<title>EIFFEL_PARENT_NODE</title>
<path fill="none" stroke="black" d="M173.88,-780.5C173.88,-780.5 34.88,-780.5 34.88,-780.5 28.88,-780.5 22.88,-774.5 22.88,-768.5 22.88,-768.5 22.88,-756.5 22.88,-756.5 22.88,-750.5 28.88,-744.5 34.88,-744.5 34.88,-744.5 173.88,-744.5 173.88,-744.5 179.88,-744.5 185.88,-750.5 185.88,-756.5 185.88,-756.5 185.88,-768.5 185.88,-768.5 185.88,-774.5 179.88,-780.5 173.88,-780.5"/>
<text xml:space="preserve" text-anchor="middle" x="104.38" y="-757.45" font-family="Times New Roman,serif" font-size="14.00">EIFFEL_PARENT_NODE</text>
</g>
<!-- EIFFEL_PARSER -->
<g id="node12" class="node">
<title>EIFFEL_PARSER</title>
<path fill="none" stroke="black" d="M151,-852.5C151,-852.5 57.75,-852.5 57.75,-852.5 51.75,-852.5 45.75,-846.5 45.75,-840.5 45.75,-840.5 45.75,-828.5 45.75,-828.5 45.75,-822.5 51.75,-816.5 57.75,-816.5 57.75,-816.5 151,-816.5 151,-816.5 157,-816.5 163,-822.5 163,-828.5 163,-828.5 163,-840.5 163,-840.5 163,-846.5 157,-852.5 151,-852.5"/>
<text xml:space="preserve" text-anchor="middle" x="104.38" y="-829.45" font-family="Times New Roman,serif" font-size="14.00">EIFFEL_PARSER</text>
</g>
<!-- EIFFEL_PARSE_ERROR -->
<g id="node13" class="node">
<title>EIFFEL_PARSE_ERROR</title>
<path fill="none" stroke="black" d="M172.38,-924.5C172.38,-924.5 36.38,-924.5 36.38,-924.5 30.38,-924.5 24.38,-918.5 24.38,-912.5 24.38,-912.5 24.38,-900.5 24.38,-900.5 24.38,-894.5 30.38,-888.5 36.38,-888.5 36.38,-888.5 172.38,-888.5 172.38,-888.5 178.38,-888.5 184.38,-894.5 184.38,-900.5 184.38,-900.5 184.38,-912.5 184.38,-912.5 184.38,-918.5 178.38,-924.5 172.38,-924.5"/>
<text xml:space="preserve" text-anchor="middle" x="104.38" y="-901.45" font-family="Times New Roman,serif" font-size="14.00">EIFFEL_PARSE_ERROR</text>
</g>
<!-- EIFFEL_TOKEN -->
<g id="node14" class="node">
<title>EIFFEL_TOKEN</title>
<path fill="none" stroke="black" d="M148.75,-996.5C148.75,-996.5 60,-996.5 60,-996.5 54,-996.5 48,-990.5 48,-984.5 48,-984.5 48,-972.5 48,-972.5 48,-966.5 54,-960.5 60,-960.5 60,-960.5 148.75,-960.5 148.75,-960.5 154.75,-960.5 160.75,-966.5 160.75,-972.5 160.75,-972.5 160.75,-984.5 160.75,-984.5 160.75,-990.5 154.75,-996.5 148.75,-996.5"/>
<text xml:space="preserve" text-anchor="middle" x="104.38" y="-973.45" font-family="Times New Roman,serif" font-size="14.00">EIFFEL_TOKEN</text>
</g>
<!-- EIFGENS_METADATA_PARSER -->
<g id="node15" class="node">
<title>EIFGENS_METADATA_PARSER</title>
<path fill="none" stroke="black" d="M196.75,-1068.5C196.75,-1068.5 12,-1068.5 12,-1068.5 6,-1068.5 0,-1062.5 0,-1056.5 0,-1056.5 0,-1044.5 0,-1044.5 0,-1038.5 6,-1032.5 12,-1032.5 12,-1032.5 196.75,-1032.5 196.75,-1032.5 202.75,-1032.5 208.75,-1038.5 208.75,-1044.5 208.75,-1044.5 208.75,-1056.5 208.75,-1056.5 208.75,-1062.5 202.75,-1068.5 196.75,-1068.5"/>
<text xml:space="preserve" text-anchor="middle" x="104.38" y="-1045.45" font-family="Times New Roman,serif" font-size="14.00">EIFGENS_METADATA_PARSER</text>
</g>
<!-- ANY -->
<g id="node16" class="node">
<title>ANY</title>
<path fill="none" stroke="black" d="M447.38,-1068.5C447.38,-1068.5 417.38,-1068.5 417.38,-1068.5 411.38,-1068.5 405.38,-1062.5 405.38,-1056.5 405.38,-1056.5 405.38,-1044.5 405.38,-1044.5 405.38,-1038.5 411.38,-1032.5 417.38,-1032.5 417.38,-1032.5 447.38,-1032.5 447.38,-1032.5 453.38,-1032.5 459.38,-1038.5 459.38,-1044.5 459.38,-1044.5 459.38,-1056.5 459.38,-1056.5 459.38,-1062.5 453.38,-1068.5 447.38,-1068.5"/>
<text xml:space="preserve" text-anchor="middle" x="432.38" y="-1045.45" font-family="Times New Roman,serif" font-size="14.00">ANY</text>
</g>
<!-- EIFGENS_METADATA_PARSER&#45;&gt;ANY -->
<g id="edge1" class="edge">
<title>EIFGENS_METADATA_PARSER&#45;&gt;ANY</title>
<path fill="none" stroke="black" d="M209.06,-1044.5C209.06,-1044.5 393.48,-1044.5 393.48,-1044.5"/>
<polygon fill="none" stroke="black" points="393.48,-1048 403.48,-1044.5 393.48,-1041 393.48,-1048"/>
</g>
<!-- EIFGENS_METADATA_PARSER&#45;&gt;ANY -->
<g id="edge6" class="edge">
<title>EIFGENS_METADATA_PARSER&#45;&gt;ANY</title>
<path fill="none" stroke="black" d="M209.06,-1056.5C209.06,-1056.5 393.48,-1056.5 393.48,-1056.5"/>
<polygon fill="none" stroke="black" points="393.48,-1060 403.48,-1056.5 393.48,-1053 393.48,-1060"/>
</g>
<!-- EIFGENS_TEST_APP -->
<g id="node17" class="node">
<title>EIFGENS_TEST_APP</title>
<path fill="none" stroke="black" d="M163.38,-1140.5C163.38,-1140.5 45.38,-1140.5 45.38,-1140.5 39.38,-1140.5 33.38,-1134.5 33.38,-1128.5 33.38,-1128.5 33.38,-1116.5 33.38,-1116.5 33.38,-1110.5 39.38,-1104.5 45.38,-1104.5 45.38,-1104.5 163.38,-1104.5 163.38,-1104.5 169.38,-1104.5 175.38,-1110.5 175.38,-1116.5 175.38,-1116.5 175.38,-1128.5 175.38,-1128.5 175.38,-1134.5 169.38,-1140.5 163.38,-1140.5"/>
<text xml:space="preserve" text-anchor="middle" x="104.38" y="-1117.45" font-family="Times New Roman,serif" font-size="14.00">EIFGENS_TEST_APP</text>
</g>
<!-- GOBO_PARSER_BRIDGE -->
<g id="node18" class="node">
<title>GOBO_PARSER_BRIDGE</title>
<path fill="none" stroke="black" d="M176.5,-1212.5C176.5,-1212.5 32.25,-1212.5 32.25,-1212.5 26.25,-1212.5 20.25,-1206.5 20.25,-1200.5 20.25,-1200.5 20.25,-1188.5 20.25,-1188.5 20.25,-1182.5 26.25,-1176.5 32.25,-1176.5 32.25,-1176.5 176.5,-1176.5 176.5,-1176.5 182.5,-1176.5 188.5,-1182.5 188.5,-1188.5 188.5,-1188.5 188.5,-1200.5 188.5,-1200.5 188.5,-1206.5 182.5,-1212.5 176.5,-1212.5"/>
<text xml:space="preserve" text-anchor="middle" x="104.38" y="-1189.45" font-family="Times New Roman,serif" font-size="14.00">GOBO_PARSER_BRIDGE</text>
</g>
<!-- ET_SHARED_TOKEN_CONSTANTS -->
<g id="node19" class="node">
<title>ET_SHARED_TOKEN_CONSTANTS</title>
<path fill="none" stroke="black" d="M536,-1212.5C536,-1212.5 328.75,-1212.5 328.75,-1212.5 322.75,-1212.5 316.75,-1206.5 316.75,-1200.5 316.75,-1200.5 316.75,-1188.5 316.75,-1188.5 316.75,-1182.5 322.75,-1176.5 328.75,-1176.5 328.75,-1176.5 536,-1176.5 536,-1176.5 542,-1176.5 548,-1182.5 548,-1188.5 548,-1188.5 548,-1200.5 548,-1200.5 548,-1206.5 542,-1212.5 536,-1212.5"/>
<text xml:space="preserve" text-anchor="middle" x="432.38" y="-1189.45" font-family="Times New Roman,serif" font-size="14.00">ET_SHARED_TOKEN_CONSTANTS</text>
</g>
<!-- GOBO_PARSER_BRIDGE&#45;&gt;ET_SHARED_TOKEN_CONSTANTS -->
<g id="edge2" class="edge">
<title>GOBO_PARSER_BRIDGE&#45;&gt;ET_SHARED_TOKEN_CONSTANTS</title>
<path fill="none" stroke="black" d="M188.84,-1188.5C188.84,-1188.5 304.85,-1188.5 304.85,-1188.5"/>
<polygon fill="none" stroke="black" points="304.85,-1192 314.85,-1188.5 304.85,-1185 304.85,-1192"/>
</g>
<!-- GOBO_PARSER_BRIDGE&#45;&gt;ET_SHARED_TOKEN_CONSTANTS -->
<g id="edge7" class="edge">
<title>GOBO_PARSER_BRIDGE&#45;&gt;ET_SHARED_TOKEN_CONSTANTS</title>
<path fill="none" stroke="black" d="M188.84,-1200.5C188.84,-1200.5 304.85,-1200.5 304.85,-1200.5"/>
<polygon fill="none" stroke="black" points="304.85,-1204 314.85,-1200.5 304.85,-1197 304.85,-1204"/>
</g>
<!-- SIMPLE_EIFFEL_PARSER -->
<g id="node20" class="node">
<title>SIMPLE_EIFFEL_PARSER</title>
<path fill="none" stroke="black" d="M178.75,-1284.5C178.75,-1284.5 30,-1284.5 30,-1284.5 24,-1284.5 18,-1278.5 18,-1272.5 18,-1272.5 18,-1260.5 18,-1260.5 18,-1254.5 24,-1248.5 30,-1248.5 30,-1248.5 178.75,-1248.5 178.75,-1248.5 184.75,-1248.5 190.75,-1254.5 190.75,-1260.5 190.75,-1260.5 190.75,-1272.5 190.75,-1272.5 190.75,-1278.5 184.75,-1284.5 178.75,-1284.5"/>
<text xml:space="preserve" text-anchor="middle" x="104.38" y="-1261.45" font-family="Times New Roman,serif" font-size="14.00">SIMPLE_EIFFEL_PARSER</text>
</g>
<!-- SIMPLE_GOBO_PARSER -->
<g id="node21" class="node">
<title>SIMPLE_GOBO_PARSER</title>
<path fill="none" stroke="black" d="M175.75,-1356.5C175.75,-1356.5 33,-1356.5 33,-1356.5 27,-1356.5 21,-1350.5 21,-1344.5 21,-1344.5 21,-1332.5 21,-1332.5 21,-1326.5 27,-1320.5 33,-1320.5 33,-1320.5 175.75,-1320.5 175.75,-1320.5 181.75,-1320.5 187.75,-1326.5 187.75,-1332.5 187.75,-1332.5 187.75,-1344.5 187.75,-1344.5 187.75,-1350.5 181.75,-1356.5 175.75,-1356.5"/>
<text xml:space="preserve" text-anchor="middle" x="104.38" y="-1333.45" font-family="Times New Roman,serif" font-size="14.00">SIMPLE_GOBO_PARSER</text>
</g>
<!-- ET_EIFFEL_PARSER -->
<g id="node22" class="node">
<title>ET_EIFFEL_PARSER</title>
<path fill="none" stroke="black" d="M490.62,-1356.5C490.62,-1356.5 374.12,-1356.5 374.12,-1356.5 368.12,-1356.5 362.12,-1350.5 362.12,-1344.5 362.12,-1344.5 362.12,-1332.5 362.12,-1332.5 362.12,-1326.5 368.12,-1320.5 374.12,-1320.5 374.12,-1320.5 490.62,-1320.5 490.62,-1320.5 496.62,-1320.5 502.62,-1326.5 502.62,-1332.5 502.62,-1332.5 502.62,-1344.5 502.62,-1344.5 502.62,-1350.5 496.62,-1356.5 490.62,-1356.5"/>
<text xml:space="preserve" text-anchor="middle" x="432.38" y="-1333.45" font-family="Times New Roman,serif" font-size="14.00">ET_EIFFEL_PARSER</text>
</g>
<!-- SIMPLE_GOBO_PARSER&#45;&gt;ET_EIFFEL_PARSER -->
<g id="edge3" class="edge">
<title>SIMPLE_GOBO_PARSER&#45;&gt;ET_EIFFEL_PARSER</title>
<path fill="none" stroke="black" d="M187.99,-1332.5C187.99,-1332.5 350.17,-1332.5 350.17,-1332.5"/>
<polygon fill="none" stroke="black" points="350.17,-1336 360.17,-1332.5 350.17,-1329 350.17,-1336"/>
</g>
<!-- SIMPLE_GOBO_PARSER&#45;&gt;ET_EIFFEL_PARSER -->
<g id="edge8" class="edge">
<title>SIMPLE_GOBO_PARSER&#45;&gt;ET_EIFFEL_PARSER</title>
<path fill="none" stroke="black" d="M187.99,-1344.5C187.99,-1344.5 350.17,-1344.5 350.17,-1344.5"/>
<polygon fill="none" stroke="black" points="350.17,-1348 360.17,-1344.5 350.17,-1341 350.17,-1348"/>
</g>
<!-- EIFFEL_PARSER_TEST_SUITE -->
<g id="node23" class="node">
<title>EIFFEL_PARSER_TEST_SUITE</title>
<path fill="none" stroke="black" d="M193,-1500.5C193,-1500.5 15.75,-1500.5 15.75,-1500.5 9.75,-1500.5 3.75,-1494.5 3.75,-1488.5 3.75,-1488.5 3.75,-1476.5 3.75,-1476.5 3.75,-1470.5 9.75,-1464.5 15.75,-1464.5 15.75,-1464.5 193,-1464.5 193,-1464.5 199,-1464.5 205,-1470.5 205,-1476.5 205,-1476.5 205,-1488.5 205,-1488.5 205,-1494.5 199,-1500.5 193,-1500.5"/>
<text xml:space="preserve" text-anchor="middle" x="104.38" y="-1477.45" font-family="Times New Roman,serif" font-size="14.00">EIFFEL_PARSER_TEST_SUITE</text>
</g>
<!-- TEST_SET_BASE -->
<g id="node24" class="node">
<title>TEST_SET_BASE</title>
<path fill="none" stroke="black" d="M480.5,-1464.5C480.5,-1464.5 384.25,-1464.5 384.25,-1464.5 378.25,-1464.5 372.25,-1458.5 372.25,-1452.5 372.25,-1452.5 372.25,-1440.5 372.25,-1440.5 372.25,-1434.5 378.25,-1428.5 384.25,-1428.5 384.25,-1428.5 480.5,-1428.5 480.5,-1428.5 486.5,-1428.5 492.5,-1434.5 492.5,-1440.5 492.5,-1440.5 492.5,-1452.5 492.5,-1452.5 492.5,-1458.5 486.5,-1464.5 480.5,-1464.5"/>
<text xml:space="preserve" text-anchor="middle" x="432.38" y="-1441.45" font-family="Times New Roman,serif" font-size="14.00">TEST_SET_BASE</text>
</g>
<!-- EIFFEL_PARSER_TEST_SUITE&#45;&gt;TEST_SET_BASE -->
<g id="edge4" class="edge">
<title>EIFFEL_PARSER_TEST_SUITE&#45;&gt;TEST_SET_BASE</title>
<path fill="none" stroke="black" d="M200,-1464.19C200,-1460.28 200,-1457.3 200,-1457.3 200,-1457.3 360.41,-1457.3 360.41,-1457.3"/>
<polygon fill="none" stroke="black" points="360.41,-1460.8 370.41,-1457.3 360.41,-1453.8 360.41,-1460.8"/>
</g>
<!-- EIFFEL_PARSER_TEST_SUITE&#45;&gt;TEST_SET_BASE -->
<g id="edge9" class="edge">
<title>EIFFEL_PARSER_TEST_SUITE&#45;&gt;TEST_SET_BASE</title>
<path fill="none" stroke="black" d="M195,-1464.03C195,-1456.75 195,-1450.1 195,-1450.1 195,-1450.1 360.35,-1450.1 360.35,-1450.1"/>
<polygon fill="none" stroke="black" points="360.35,-1453.6 370.35,-1450.1 360.35,-1446.6 360.35,-1453.6"/>
</g>
<!-- LIB_TESTS -->
<g id="node25" class="node">
<title>LIB_TESTS</title>
<path fill="none" stroke="black" d="M134.5,-1428.5C134.5,-1428.5 74.25,-1428.5 74.25,-1428.5 68.25,-1428.5 62.25,-1422.5 62.25,-1416.5 62.25,-1416.5 62.25,-1404.5 62.25,-1404.5 62.25,-1398.5 68.25,-1392.5 74.25,-1392.5 74.25,-1392.5 134.5,-1392.5 134.5,-1392.5 140.5,-1392.5 146.5,-1398.5 146.5,-1404.5 146.5,-1404.5 146.5,-1416.5 146.5,-1416.5 146.5,-1422.5 140.5,-1428.5 134.5,-1428.5"/>
<text xml:space="preserve" text-anchor="middle" x="104.38" y="-1405.45" font-family="Times New Roman,serif" font-size="14.00">LIB_TESTS</text>
</g>
<!-- LIB_TESTS&#45;&gt;TEST_SET_BASE -->
<g id="edge5" class="edge">
<title>LIB_TESTS&#45;&gt;TEST_SET_BASE</title>
<path fill="none" stroke="black" d="M90,-1428.81C90,-1432.72 90,-1435.7 90,-1435.7 90,-1435.7 360.44,-1435.7 360.44,-1435.7"/>
<polygon fill="none" stroke="black" points="360.44,-1439.2 370.44,-1435.7 360.44,-1432.2 360.44,-1439.2"/>
</g>
<!-- LIB_TESTS&#45;&gt;TEST_SET_BASE -->
<g id="edge10" class="edge">
<title>LIB_TESTS&#45;&gt;TEST_SET_BASE</title>
<path fill="none" stroke="black" d="M118,-1428.97C118,-1436.25 118,-1442.9 118,-1442.9 118,-1442.9 360.25,-1442.9 360.25,-1442.9"/>
<polygon fill="none" stroke="black" points="360.25,-1446.4 370.25,-1442.9 360.25,-1439.4 360.25,-1446.4"/>
</g>
<!-- TEST_APP -->
<g id="node26" class="node">
<title>TEST_APP</title>
<path fill="none" stroke="black" d="M132.25,-1572.5C132.25,-1572.5 76.5,-1572.5 76.5,-1572.5 70.5,-1572.5 64.5,-1566.5 64.5,-1560.5 64.5,-1560.5 64.5,-1548.5 64.5,-1548.5 64.5,-1542.5 70.5,-1536.5 76.5,-1536.5 76.5,-1536.5 132.25,-1536.5 132.25,-1536.5 138.25,-1536.5 144.25,-1542.5 144.25,-1548.5 144.25,-1548.5 144.25,-1560.5 144.25,-1560.5 144.25,-1566.5 138.25,-1572.5 132.25,-1572.5"/>
<text xml:space="preserve" text-anchor="middle" x="104.38" y="-1549.45" font-family="Times New Roman,serif" font-size="14.00">TEST_APP</text>
</g>
<!-- TEST_LEXER -->
<g id="node27" class="node">
<title>TEST_LEXER</title>
<path fill="none" stroke="black" d="M141.62,-1644.5C141.62,-1644.5 67.12,-1644.5 67.12,-1644.5 61.12,-1644.5 55.12,-1638.5 55.12,-1632.5 55.12,-1632.5 55.12,-1620.5 55.12,-1620.5 55.12,-1614.5 61.12,-1608.5 67.12,-1608.5 67.12,-1608.5 141.62,-1608.5 141.62,-1608.5 147.62,-1608.5 153.62,-1614.5 153.62,-1620.5 153.62,-1620.5 153.62,-1632.5 153.62,-1632.5 153.62,-1638.5 147.62,-1644.5 141.62,-1644.5"/>
<text xml:space="preserve" text-anchor="middle" x="104.38" y="-1621.45" font-family="Times New Roman,serif" font-size="14.00">TEST_LEXER</text>
</g>
<!-- TEST_STRING_LEXER -->
<g id="node28" class="node">
<title>TEST_STRING_LEXER</title>
<path fill="none" stroke="black" d="M169.38,-1716.5C169.38,-1716.5 39.38,-1716.5 39.38,-1716.5 33.38,-1716.5 27.38,-1710.5 27.38,-1704.5 27.38,-1704.5 27.38,-1692.5 27.38,-1692.5 27.38,-1686.5 33.38,-1680.5 39.38,-1680.5 39.38,-1680.5 169.38,-1680.5 169.38,-1680.5 175.38,-1680.5 181.38,-1686.5 181.38,-1692.5 181.38,-1692.5 181.38,-1704.5 181.38,-1704.5 181.38,-1710.5 175.38,-1716.5 169.38,-1716.5"/>
<text xml:space="preserve" text-anchor="middle" x="104.38" y="-1693.45" font-family="Times New Roman,serif" font-size="14.00">TEST_STRING_LEXER</text>
</g>
</g>
</svg>
