<?xml version="1.0" encoding="UTF-8" standalone="no"?>
<!DOCTYPE svg PUBLIC "-//W3C//DTD SVG 1.1//EN"
 "http://www.w3.org/Graphics/SVG/1.1/DTD/svg11.dtd">
<!-- Generated by graphviz version 14.1.1 (20251213.1925)
 -->
<!-- Title: Dependencies Pages: 1 -->
<svg width="387pt" height="1149pt"
 viewBox="0.00 0.00 387.00 1149.00" xmlns="http://www.w3.org/2000/svg" xmlns:xlink="http://www.w3.org/1999/xlink">
<g id="graph0" class="graph" transform="scale(1 1) rotate(0) translate(4 1144.5)">
<title>Dependencies</title>
<polygon fill="white" stroke="none" points="-4,4 -4,-1144.5 382.5,-1144.5 382.5,4 -4,4"/>
<text xml:space="preserve" text-anchor="middle" x="189.25" y="-7.2" font-family="Times New Roman,serif" font-size="14.00">simple_eiffel_parser &#45; Dependencies</text>
<!-- simple_eiffel_parser -->
<g id="node1" class="node">
<title>simple_eiffel_parser</title>
<polygon fill="lightblue" stroke="black" points="127.75,-600.5 0,-600.5 0,-564.5 127.75,-564.5 127.75,-600.5"/>
<text xml:space="preserve" text-anchor="middle" x="63.88" y="-577.45" font-family="Times New Roman,serif" font-size="14.00">simple_eiffel_parser</text>
</g>
<!-- simple_file -->
<g id="node2" class="node">
<title>simple_file</title>
<polygon fill="lightblue" stroke="black" points="363.88,-1140.5 286.38,-1140.5 286.38,-1104.5 363.88,-1104.5 363.88,-1140.5"/>
<text xml:space="preserve" text-anchor="middle" x="325.12" y="-1117.45" font-family="Times New Roman,serif" font-size="14.00">simple_file</text>
</g>
<!-- simple_eiffel_parser&#45;&gt;simple_file -->
<g id="edge1" class="edge">
<title>simple_eiffel_parser&#45;&gt;simple_file</title>
<path fill="none" stroke="black" stroke-dasharray="5,2" d="M15.5,-600.78C15.5,-695.1 15.5,-1122.5 15.5,-1122.5 15.5,-1122.5 274.4,-1122.5 274.4,-1122.5"/>
<polygon fill="black" stroke="black" points="274.4,-1126 284.4,-1122.5 274.4,-1119 274.4,-1126"/>
</g>
<!-- simple_regex -->
<g id="node3" class="node">
<title>simple_regex</title>
<polygon fill="lightblue" stroke="black" points="369.88,-1068.5 280.38,-1068.5 280.38,-1032.5 369.88,-1032.5 369.88,-1068.5"/>
<text xml:space="preserve" text-anchor="middle" x="325.12" y="-1045.45" font-family="Times New Roman,serif" font-size="14.00">simple_regex</text>
</g>
<!-- simple_eiffel_parser&#45;&gt;simple_regex -->
<g id="edge2" class="edge">
<title>simple_eiffel_parser&#45;&gt;simple_regex</title>
<path fill="none" stroke="black" stroke-dasharray="5,2" d="M31.5,-600.85C31.5,-687.37 31.5,-1050.5 31.5,-1050.5 31.5,-1050.5 268.38,-1050.5 268.38,-1050.5"/>
<polygon fill="black" stroke="black" points="268.38,-1054 278.38,-1050.5 268.38,-1047 268.38,-1054"/>
</g>
<!-- simple_datetime -->
<g id="node4" class="node">
<title>simple_datetime</title>
<polygon fill="lightblue" stroke="black" points="378.5,-996.5 271.75,-996.5 271.75,-960.5 378.5,-960.5 378.5,-996.5"/>
<text xml:space="preserve" text-anchor="middle" x="325.12" y="-973.45" font-family="Times New Roman,serif" font-size="14.00">simple_datetime</text>
</g>
<!-- simple_eiffel_parser&#45;&gt;simple_datetime -->
<g id="edge3" class="edge">
<title>simple_eiffel_parser&#45;&gt;simple_datetime</title>
<path fill="none" stroke="black" stroke-dasharray="5,2" d="M47.5,-600.81C47.5,-678.69 47.5,-978.5 47.5,-978.5 47.5,-978.5 259.75,-978.5 259.75,-978.5"/>
<polygon fill="black" stroke="black" points="259.75,-982 269.75,-978.5 259.75,-975 259.75,-982"/>
</g>
<!-- simple_env -->
<g id="node5" class="node">
<title>simple_env</title>
<polygon fill="lightblue" stroke="black" points="364.62,-924.5 285.62,-924.5 285.62,-888.5 364.62,-888.5 364.62,-924.5"/>
<text xml:space="preserve" text-anchor="middle" x="325.12" y="-901.45" font-family="Times New Roman,serif" font-size="14.00">simple_env</text>
</g>
<!-- simple_eiffel_parser&#45;&gt;simple_env -->
<g id="edge4" class="edge">
<title>simple_eiffel_parser&#45;&gt;simple_env</title>
<path fill="none" stroke="black" stroke-dasharray="5,2" d="M63.5,-600.85C63.5,-669.39 63.5,-906.5 63.5,-906.5 63.5,-906.5 273.88,-906.5 273.88,-906.5"/>
<polygon fill="black" stroke="black" points="273.88,-910 283.88,-906.5 273.88,-903 273.88,-910"/>
</g>
<!-- simple_testing -->
<g id="node6" class="node">
<title>simple_testing</title>
<polygon fill="lightblue" stroke="black" points="372.88,-852.5 277.38,-852.5 277.38,-816.5 372.88,-816.5 372.88,-852.5"/>
<text xml:space="preserve" text-anchor="middle" x="325.12" y="-829.45" font-family="Times New Roman,serif" font-size="14.00">simple_testing</text>
</g>
<!-- simple_eiffel_parser&#45;&gt;simple_testing -->
<g id="edge5" class="edge">
<title>simple_eiffel_parser&#45;&gt;simple_testing</title>
<path fill="none" stroke="black" stroke-dasharray="5,2" d="M79.5,-600.62C79.5,-658.4 79.5,-834.5 79.5,-834.5 79.5,-834.5 265.38,-834.5 265.38,-834.5"/>
<polygon fill="black" stroke="black" points="265.38,-838 275.38,-834.5 265.38,-831 265.38,-838"/>
</g>
<!-- base -->
<g id="node7" class="node">
<title>base</title>
<polygon fill="lightgray" stroke="black" points="352.12,-780.5 298.12,-780.5 298.12,-744.5 352.12,-744.5 352.12,-780.5"/>
<text xml:space="preserve" text-anchor="middle" x="325.12" y="-757.45" font-family="Times New Roman,serif" font-size="14.00">base</text>
</g>
<!-- simple_eiffel_parser&#45;&gt;base -->
<g id="edge6" class="edge">
<title>simple_eiffel_parser&#45;&gt;base</title>
<path fill="none" stroke="black" stroke-dasharray="5,2" d="M95.5,-600.75C95.5,-646.51 95.5,-762.5 95.5,-762.5 95.5,-762.5 286.37,-762.5 286.37,-762.5"/>
<polygon fill="black" stroke="black" points="286.37,-766 296.37,-762.5 286.37,-759 286.37,-766"/>
</g>
<!-- gobo_kernel -->
<g id="node8" class="node">
<title>gobo_kernel</title>
<polygon fill="lightgray" stroke="black" points="366.88,-708.5 283.38,-708.5 283.38,-672.5 366.88,-672.5 366.88,-708.5"/>
<text xml:space="preserve" text-anchor="middle" x="325.12" y="-685.45" font-family="Times New Roman,serif" font-size="14.00">gobo_kernel</text>
</g>
<!-- simple_eiffel_parser&#45;&gt;gobo_kernel -->
<g id="edge7" class="edge">
<title>simple_eiffel_parser&#45;&gt;gobo_kernel</title>
<path fill="none" stroke="black" stroke-dasharray="5,2" d="M111.5,-600.82C111.5,-631.63 111.5,-690.5 111.5,-690.5 111.5,-690.5 271.41,-690.5 271.41,-690.5"/>
<polygon fill="black" stroke="black" points="271.41,-694 281.41,-690.5 271.41,-687 271.41,-694"/>
</g>
<!-- gobo_structure -->
<g id="node9" class="node">
<title>gobo_structure</title>
<polygon fill="lightgray" stroke="black" points="373.62,-636.5 276.62,-636.5 276.62,-600.5 373.62,-600.5 373.62,-636.5"/>
<text xml:space="preserve" text-anchor="middle" x="325.12" y="-613.45" font-family="Times New Roman,serif" font-size="14.00">gobo_structure</text>
</g>
<!-- simple_eiffel_parser&#45;&gt;gobo_structure -->
<g id="edge8" class="edge">
<title>simple_eiffel_parser&#45;&gt;gobo_structure</title>
<path fill="none" stroke="black" stroke-dasharray="5,2" d="M127.92,-588.5C209.07,-588.5 338.5,-588.5 338.5,-588.5 338.5,-588.5 338.5,-589.65 338.5,-589.65"/>
<polygon fill="black" stroke="black" points="335,-588.5 338.5,-598.5 342,-588.5 335,-588.5"/>
</g>
<!-- gobo_utility -->
<g id="node10" class="node">
<title>gobo_utility</title>
<polygon fill="lightgray" stroke="black" points="366.12,-564.5 284.12,-564.5 284.12,-528.5 366.12,-528.5 366.12,-564.5"/>
<text xml:space="preserve" text-anchor="middle" x="325.12" y="-541.45" font-family="Times New Roman,serif" font-size="14.00">gobo_utility</text>
</g>
<!-- simple_eiffel_parser&#45;&gt;gobo_utility -->
<g id="edge9" class="edge">
<title>simple_eiffel_parser&#45;&gt;gobo_utility</title>
<path fill="none" stroke="black" stroke-dasharray="5,2" d="M127.97,-576.5C201.34,-576.5 311.5,-576.5 311.5,-576.5 311.5,-576.5 311.5,-575.35 311.5,-575.35"/>
<polygon fill="black" stroke="black" points="315,-576.5 311.5,-566.5 308,-576.5 315,-576.5"/>
</g>
<!-- gobo_time -->
<g id="node11" class="node">
<title>gobo_time</title>
<polygon fill="lightgray" stroke="black" points="362.38,-492.5 287.88,-492.5 287.88,-456.5 362.38,-456.5 362.38,-492.5"/>
<text xml:space="preserve" text-anchor="middle" x="325.12" y="-469.45" font-family="Times New Roman,serif" font-size="14.00">gobo_time</text>
</g>
<!-- simple_eiffel_parser&#45;&gt;gobo_time -->
<g id="edge10" class="edge">
<title>simple_eiffel_parser&#45;&gt;gobo_time</title>
<path fill="none" stroke="black" stroke-dasharray="5,2" d="M111.5,-564.18C111.5,-533.37 111.5,-474.5 111.5,-474.5 111.5,-474.5 275.91,-474.5 275.91,-474.5"/>
<polygon fill="black" stroke="black" points="275.91,-478 285.91,-474.5 275.91,-471 275.91,-478"/>
</g>
<!-- gobo_string -->
<g id="node12" class="node">
<title>gobo_string</title>
<polygon fill="lightgray" stroke="black" points="365.38,-420.5 284.88,-420.5 284.88,-384.5 365.38,-384.5 365.38,-420.5"/>
<text xml:space="preserve" text-anchor="middle" x="325.12" y="-397.45" font-family="Times New Roman,serif" font-size="14.00">gobo_string</text>
</g>
<!-- simple_eiffel_parser&#45;&gt;gobo_string -->
<g id="edge11" class="edge">
<title>simple_eiffel_parser&#45;&gt;gobo_string</title>
<path fill="none" stroke="black" stroke-dasharray="5,2" d="M95.5,-564.25C95.5,-518.49 95.5,-402.5 95.5,-402.5 95.5,-402.5 273.09,-402.5 273.09,-402.5"/>
<polygon fill="black" stroke="black" points="273.09,-406 283.09,-402.5 273.09,-399 273.09,-406"/>
</g>
<!-- gobo_lexical -->
<g id="node13" class="node">
<title>gobo_lexical</title>
<polygon fill="lightgray" stroke="black" points="368,-348.5 282.25,-348.5 282.25,-312.5 368,-312.5 368,-348.5"/>
<text xml:space="preserve" text-anchor="middle" x="325.12" y="-325.45" font-family="Times New Roman,serif" font-size="14.00">gobo_lexical</text>
</g>
<!-- simple_eiffel_parser&#45;&gt;gobo_lexical -->
<g id="edge12" class="edge">
<title>simple_eiffel_parser&#45;&gt;gobo_lexical</title>
<path fill="none" stroke="black" stroke-dasharray="5,2" d="M79.5,-564.38C79.5,-506.6 79.5,-330.5 79.5,-330.5 79.5,-330.5 270.26,-330.5 270.26,-330.5"/>
<polygon fill="black" stroke="black" points="270.26,-334 280.26,-330.5 270.26,-327 270.26,-334"/>
</g>
<!-- gobo_parse -->
<g id="node14" class="node">
<title>gobo_parse</title>
<polygon fill="lightgray" stroke="black" points="364.25,-276.5 286,-276.5 286,-240.5 364.25,-240.5 364.25,-276.5"/>
<text xml:space="preserve" text-anchor="middle" x="325.12" y="-253.45" font-family="Times New Roman,serif" font-size="14.00">gobo_parse</text>
</g>
<!-- simple_eiffel_parser&#45;&gt;gobo_parse -->
<g id="edge13" class="edge">
<title>simple_eiffel_parser&#45;&gt;gobo_parse</title>
<path fill="none" stroke="black" stroke-dasharray="5,2" d="M63.5,-564.15C63.5,-495.61 63.5,-258.5 63.5,-258.5 63.5,-258.5 274.16,-258.5 274.16,-258.5"/>
<polygon fill="black" stroke="black" points="274.16,-262 284.16,-258.5 274.16,-255 274.16,-262"/>
</g>
<!-- gobo_regexp -->
<g id="node15" class="node">
<title>gobo_regexp</title>
<polygon fill="lightgray" stroke="black" points="368.38,-204.5 281.88,-204.5 281.88,-168.5 368.38,-168.5 368.38,-204.5"/>
<text xml:space="preserve" text-anchor="middle" x="325.12" y="-181.45" font-family="Times New Roman,serif" font-size="14.00">gobo_regexp</text>
</g>
<!-- simple_eiffel_parser&#45;&gt;gobo_regexp -->
<g id="edge14" class="edge">
<title>simple_eiffel_parser&#45;&gt;gobo_regexp</title>
<path fill="none" stroke="black" stroke-dasharray="5,2" d="M47.5,-564.19C47.5,-486.31 47.5,-186.5 47.5,-186.5 47.5,-186.5 269.93,-186.5 269.93,-186.5"/>
<polygon fill="black" stroke="black" points="269.93,-190 279.93,-186.5 269.93,-183 269.93,-190"/>
</g>
<!-- gobo_tools -->
<g id="node16" class="node">
<title>gobo_tools</title>
<polygon fill="lightgray" stroke="black" points="363.12,-132.5 287.12,-132.5 287.12,-96.5 363.12,-96.5 363.12,-132.5"/>
<text xml:space="preserve" text-anchor="middle" x="325.12" y="-109.45" font-family="Times New Roman,serif" font-size="14.00">gobo_tools</text>
</g>
<!-- simple_eiffel_parser&#45;&gt;gobo_tools -->
<g id="edge15" class="edge">
<title>simple_eiffel_parser&#45;&gt;gobo_tools</title>
<path fill="none" stroke="black" stroke-dasharray="5,2" d="M31.5,-564.15C31.5,-477.63 31.5,-114.5 31.5,-114.5 31.5,-114.5 275.23,-114.5 275.23,-114.5"/>
<polygon fill="black" stroke="black" points="275.23,-118 285.23,-114.5 275.23,-111 275.23,-118"/>
</g>
<!-- testing -->
<g id="node17" class="node">
<title>testing</title>
<polygon fill="lightgray" stroke="black" points="352.12,-60.5 298.12,-60.5 298.12,-24.5 352.12,-24.5 352.12,-60.5"/>
<text xml:space="preserve" text-anchor="middle" x="325.12" y="-37.45" font-family="Times New Roman,serif" font-size="14.00">testing</text>
</g>
<!-- simple_eiffel_parser&#45;&gt;testing -->
<g id="edge16" class="edge">
<title>simple_eiffel_parser&#45;&gt;testing</title>
<path fill="none" stroke="black" stroke-dasharray="5,2" d="M15.5,-564.22C15.5,-469.9 15.5,-42.5 15.5,-42.5 15.5,-42.5 286.13,-42.5 286.13,-42.5"/>
<polygon fill="black" stroke="black" points="286.13,-46 296.13,-42.5 286.13,-39 286.13,-46"/>
</g>
</g>
</svg>
